<?xml version="1.0" encoding="UTF-8"?>
<svg xmlns="http://www.w3.org/2000/svg" xmlns:xlink="http://www.w3.org/1999/xlink" 
     width="192" height="192" viewBox="0 0 192 192">
  <!-- White background -->
  <rect width="192" height="192" fill="white"/>
  <!-- Logo centered with padding -->
  <g transform="translate(29, 29)">
    <svg width="134" height="134" viewBox="0 0 209.46 225.17">
      <g>
        <path d="M139.04,224.72c.11-2.17-3.88-11.01-5.36-11.43-1.14-.33-2.67.25-3.67-.34-1.25-.74-4.73-7.94-7-9.02,1.12-1.88,4.79-4.53,4.99-6.56.1-.99-.99-4.88-1.35-6.12-.29-1.02-1.42-2.46-1.46-2.85-.13-1.26,2.15-4,1.55-5.74-.89-2.61-5.67-6.08-6.27-9.04-.7.05-.88,2.26-.93,2.82-.14,1.49.04,2.98-.06,4.46-.19,2.73-1.06.51-2.33-.19-5.42-2.97-11.01-5.7-16.46-8.61-.34-.4-3.66-9.32-3.69-9.84-.05-.66.69-1.05.83-1.55.27-.94-1.45-2.85-2.28-3.06-1.07-.27-1.74.75-2.49.83-1.3.14-3.95-2.85-5.18-3.66,2.67-1.36,5.66-2.18,8.21-3.82.62-.4,1.14-.59.33-1.19-3.18-.64-6.65-1.77-9.84-2.2-3.56-.48-7.58-.17-10.98-.56-8.63-.99-17.22-3.59-25.92-4.23-4.37.48-11.41,9.58-14.96,12.52-4.75,3.92-10.89,5.57-16.56,7.76,1.04-1.59-.08-3.83.97-5.29,1.36-1.89,7.7-4.17,10.03-5.52,6.09-3.52,12.37-8.76,14.35-15.74.65-2.28.32-5.34.84-7.17,1.18-4.16,12.51-1.43,15.95-2.86-.5,7.39,5.04,13.14,12.54,11.02-5.86-18.47-2.43-38.49,3.01-56.62h-6.52s2-3.51,2-3.51c-1.7.97-4.15.31-5.81-.45-.58-.27-.92.25-.71-1.05,3.32-.44,7.37-1.22,10.51-2.28,10.72-3.61,13.34-10.61,27.36-9.24,4.09.4,9.69,3.9,13,3.48,4.29-.55,6.84-7.42,4.56-11.01l-8-1.53c-.49,3.49-2.45,5.08-6,4.99-.6-.02-7.8-1.22-6.32-2.45.75.09,4.39.02,4.53-.78.38-2.2-4.12-2.58-3.52-6.45.31-2.02,5.89-5.96,7.51-8.07,3.73-4.86,3.19-6.24,10.04-8.51,1.63-.54,5.47-1.67,6.81-.79,1.59,1.05,7.11,11.54,8.17,13.89,2.32,5.11,4.13,10.68,5.09,16.21.88-.15.56-2.61.52-3.28-.1-1.77-.29-4.82-.56-6.45-.23-1.36-2.05-5.91-1.97-6.54.29-2.14,2.92,1.9,3.19,2.32,12.65,19.01,4.75,52.22,1.87,73.4-.45,3.29-.48,6.9-1.05,10.22,1.53.01,3.02-.15,4.53.24,2.96.76,8.76,4.78,11.4,5.19,3.12.49,9.81-1.3,11.48,3.01,7.38,2.36,15.1,3.76,22.47,6.12,1.7.54,4.99,1.35,6.28,2.25,1.07.74,6.82,9.72,7.02,11.03.57,3.65-4.08,15.68-1.64,17.29,2.27,1.5,6.42,1.12,7.16,5.76.42,2.64-.97,4.01-.99,5.98-.04,4.98,1.97,6.89.86,13.89s-3.79,14.33-7.37,20.7l-52.95.27-4.99-3.54,2.25,3.51h-7.02ZM123.41,134.93c.84-2.27,2.16-4.55,2.95-6.82,1.65-4.7,5.06-16.33,4.64-20.91-1.46-15.84-27.07-13.65-32.84-1.25-3.64,7.82-4.9,21.29,3.61,26.48,2.04.51,5.97-1.74,7.41-1.74,2.27,0,11.46,5.96,14.22,4.23ZM87.38,135.01c-3.92-6.76-4.05-16.59-3.51-24.29.27-3.8,1.63-7.49,1.75-11.28-4.12,8.69-8.09,22.33-4.65,31.71,1.41,3.86,2.18,4.34,6.41,3.87ZM137.04,159.57c-.79-1.81-.51-5.9-1.8-6.96-2.38-1.95-11.85-1.12-15.25-2.55-.49,3.13,2.4,2.71,3.39,3.63.91.85,2.75,5.46,3.93,6.35.45.34,5.97,2.25,6.23,2.04l-3.01-5,6.52,2.5Z"/>
        <path d="M93.4,184.38c.31,1.54,2.67,3.12,2.98,5.04.55,3.4-.99,6.75-.37,10.14l8.91,6.87-12.03,3.51c3.02.86,4.29,5.04,5.88,6.28.53.41,1.6.57,2.31,1.07,1.11.8,7.55,5.72,8.36,4.93,1.19-6.11.42-11.79-.99-17.75l6.01-9.31c.33,3.12,2.89,8.53,2.9,11.37,0,.94-2.64,4.54-2.38,6.16l2.25-2.5c.2,4.83-3.57,9.7-4.84,14.46l-13.48-.18c-1.61-2.24-2.37-5.35-4.01-7.52-.71-.94-5.92-5.42-6.76-5.27-.9.16-.55.77-.35,1.33,1.25,3.55,4.11,7.29,5.83,10.69l-.28,1.46-10.48-.45c.67-2.91-1.09-6.1-1.02-8.75.06-2.12,1.5-4.91,1.23-7.34,1.25-1.98,3.7-3.24,5.8-1.46l-.09-1.66-17.65-14.33-.32-1.03,4.04-2.87-.46-4.59c7.69-3.19,12.99-9.64,18.99-15.1.68,4.87-.91,12.25,0,16.79Z"/>
        <path d="M10.13,224.72l1.57-9.95,6.45-1.08-3.94-1.07c-.15-1.21-.14-2.47-.06-3.68.08-1.35.34-5.5.6-6.41.42-1.49,4.37-4.89,4.8-6.24.47-1.48-.04-6.39.11-8.4.14-1.89.66-3.87.73-5.79,4.35-1.54,8.2-3.9,12.83-2.19,5.84-4.3,11.29-8.62,18.54-10.31-1.27,3.17-3.68,5.48-5.02,8.76-1.05,2.56-1.59,5.01-2.05,7.72-7.47-.25-14.69,2.3-21.49,5.11,1.09,5.33.81,11.09,2.39,16.29.47,1.53,3.1,6.63,3.08,7.48-.03.91-2.47,3.75-3.1,4.92-.28.52-.32,1.68-.45,1.79-.63.54-4.11-1.02-3.96,3.06h-11.04Z"/>
        <path d="M166.02.35c10.57-1.19,23.45.11,25.57,12.76.15.87.44,5.65-1.31,3.32-4.19-5.57-7.21-9.79-14.85-10.22-14.9-.85-24.34,5.24-33.37,16.32-2.69,2.32-5.67,10.49-7.79,12.26-1.58,1.33-3.74.34-3.78-1.72-.15-6.71,11.16-20.59,16.32-24.84,4.89-4.03,12.93-7.16,19.21-7.87Z"/>
        <path d="M121.99,32.28c-.27-3.13,1.13-5.61,1.03-8.78-.21-6.78-5.06-15.77-12.75-15.21-4.09.3-9.92,2.98-13.43,5.13-2.15,1.32-6.39,5.62-8.7,5.34-.44,0-.33-1.02-.23-1.24.19-.44,6.61-5.37,7.54-6,11.12-7.6,23.22-12.79,30.15,2.88,1.75,3.95,3.39,11.57,1.32,15.53-.36.69-4.73,2.55-4.92,2.35Z"/>
        <path d="M9.12,182.62c-.29,1.44.51,1.56,1.5,2.25-4.62,4.76-2.3,10.37-3.04,16-.43,3.3-3.09,6.73-3.47,10.06-.52,4.57.08,10.1,3.01,13.78l-4.18.02c-2.55-4.25-3.29-9.35-2.79-14.25.29-2.81,1.67-6.21,1.76-9.16.08-2.36-1.1-5.75-.8-7.9.16-1.12,5.27-8.61,6.3-9.77.5-.57.77-1.23,1.71-1.04Z"/>
        <path d="M131.52,224.72h-9.53c-.06-1.2-.18-2.14.72-3.04.71-.7,6.12-2.68,6.81-2.25.96.61,1.76,4.08,2,5.29Z"/>
        <path d="M144.56,41.3c-4.41,2.57-11.28-.46-13.04-5,.56-.49,5.86,1.89,7,2.27.46.15,7.3,1.05,6.04,2.73Z"/>
      </g>
    </svg>
  </g>
</svg>